<?xml version="1.0" encoding="UTF-8" standalone="no"?>
<svg width="1313px" height="730px" viewBox="0 0 1313 730" version="1.1" xmlns="http://www.w3.org/2000/svg" xmlns:xlink="http://www.w3.org/1999/xlink" xmlns:sketch="http://www.bohemiancoding.com/sketch/ns">
    <title>homeDesign</title>
    <description>Created with Sketch (http://www.bohemiancoding.com/sketch)</description>
    <defs></defs>
    <g id="Page-1" stroke="none" stroke-width="1" fill="none" fill-rule="evenodd" sketch:type="MSPage">
        <text id="D3.js-" sketch:type="MSTextLayer" font-family="Helvetica Neue" font-size="72" font-weight="bold" sketch:alignment="middle" fill="#FFFFFF">
            <tspan x="657" y="114.287842">D3.js </tspan>
            <tspan x="657" y="213.287842">Javascript </tspan>
            <tspan x="657" y="312.287842">Python</tspan>
            <tspan x="657" y="411.287842">Data Visualization</tspan>
            <tspan x="657" y="510.287842">Design </tspan>
            <tspan x="657" y="609.287842">Big Data</tspan>
            <tspan x="952" y="609.287842" font-size="41"></tspan>
        </text>
        <path d="M283.998047,406.998047 C283.998047,431.749023 311.720778,456.5 349,456.5 C386.279222,456.5 412.498047,431.749023 412.498047,406.998047" id="Oval-4" stroke="#FFFFFF" stroke-width="27" stroke-linecap="round" sketch:type="MSShapeGroup"></path>
        <circle id="Oval-1" stroke="#FFFFFF" stroke-width="28" sketch:type="MSShapeGroup" cx="348" cy="378" r="133"></circle>
        <path d="M296,370 C309.807119,370 321,358.359404 321,344 C321,329.640596 309.807119,318 296,318 C282.192881,318 271,329.640596 271,344 C271,358.359404 282.192881,370 296,370 Z" id="Oval-2" stroke="#979797" fill="#FFFFFF" sketch:type="MSShapeGroup"></path>
        <path d="M408,370 C421.807119,370 433,358.359404 433,344 C433,329.640596 421.807119,318 408,318 C394.192881,318 383,329.640596 383,344 C383,358.359404 394.192881,370 408,370 Z" id="Oval-2" stroke="#979797" fill="#FFFFFF" sketch:type="MSShapeGroup"></path>
        <rect id="Rectangle-3" stroke="#FFFFFF" stroke-width="16" sketch:type="MSShapeGroup" x="107" y="65" width="482" height="594" rx="40"></rect>
        <rect id="Rectangle-2" stroke="#FFFFFF" stroke-width="21" sketch:type="MSShapeGroup" x="13" y="12" width="1288" height="700" rx="40"></rect>
    </g>
</svg>